<svg width="68" height="88" viewBox="0 0 68 88" fill="none" xmlns="http://www.w3.org/2000/svg">
<path d="M59.5 63C59.5 63 68 72.5523 68 79.3106C68 84.6425 64.7157 88 59.5 88C54.2843 88 51 84.6425 51 79.3106C51 72.5523 59.5 63 59.5 63ZM58.5556 84.8622V83.4139C57.6166 83.4128 56.7164 83.031 56.0524 82.3523C55.3885 81.6735 55.015 80.7533 55.0139 79.7934H53.5972C53.5986 81.1373 54.1215 82.4257 55.051 83.376C55.9806 84.3262 57.241 84.8607 58.5556 84.8622Z" fill="#275B81"/>
<path d="M24 4V5.5L12 4C9.7875 4 8 5.7875 8 8C8 10.2125 9.7875 12 12 12L24 10.5L27.875 10.0125L28 10L28.125 10.0125L32 10.5L44 12C46.2125 12 48 10.2125 48 8C48 5.7875 46.2125 4 44 4L32 5.5V4C32 1.7875 30.2125 0 28 0C25.7875 0 24 1.7875 24 4ZM4 24C1.7875 24 0 25.7875 0 28V36C0 38.2125 1.7875 40 4 40H16.5125C19.0375 43.625 23.25 46 28 46C32.75 46 36.9625 43.625 39.4875 40H44C46.2125 40 48 41.7875 48 44C48 46.2125 49.7875 48 52 48H60C62.2125 48 64 46.2125 64 44C64 32.95 55.05 24 44 24H40L37.175 21.175C36.425 20.425 35.4125 20 34.35 20H32V14.525L28 14.025L24 14.525V20H21.6625C20.6 20 19.5875 20.425 18.8375 21.175L16 24H4Z" fill="#275B81"/>
</svg>
