<svg width="40" height="40" viewBox="0 0 40 40" fill="none" xmlns="http://www.w3.org/2000/svg">
<path id="Vector" d="M23.993 1.82445e-06C27.6528 -0.00174545 31.2026 1.25158 34.0503 3.55096C36.898 5.85033 38.8715 9.05675 39.6417 12.6354C40.4119 16.2141 39.9321 19.9488 38.2825 23.2165C36.6329 26.4842 33.9131 29.0874 30.5768 30.5921C29.5103 32.9504 27.8879 35.0147 25.8487 36.6081C23.8095 38.2015 21.4143 39.2764 18.8685 39.7406C16.3228 40.2047 13.7025 40.0443 11.2323 39.2732C8.76215 38.502 6.51586 37.143 4.68609 35.3128C2.85632 33.4826 1.49767 31.2357 0.726668 28.765C-0.0443348 26.2942 -0.204683 23.6733 0.259377 21.1269C0.723436 18.5806 1.79805 16.1848 3.39107 14.1451C4.98408 12.1054 7.04794 10.4826 9.40566 9.41587C10.6739 6.60909 12.7247 4.22784 15.3121 2.55772C17.8995 0.887604 20.9137 -0.000474223 23.993 1.82445e-06ZM15.9934 12.0024C12.8109 12.0024 9.7588 13.2669 7.50846 15.5178C5.25812 17.7687 3.9939 20.8215 3.9939 24.0048C3.9939 27.188 5.25812 30.2408 7.50846 32.4917C9.7588 34.7426 12.8109 36.0071 15.9934 36.0071C19.1758 36.0071 22.228 34.7426 24.4783 32.4917C26.7286 30.2408 27.9929 27.188 27.9929 24.0048C27.9929 20.8215 26.7286 17.7687 24.4783 15.5178C22.228 13.2669 19.1758 12.0024 15.9934 12.0024ZM17.9933 14.0028V16.0032H21.9931V20.004H13.9935C13.7436 20.0035 13.5026 20.0966 13.3179 20.265C13.1333 20.4334 13.0183 20.6649 12.9958 20.9138C12.9732 21.1627 13.0446 21.4111 13.1959 21.61C13.3473 21.8088 13.5676 21.9438 13.8135 21.9884L13.9935 22.0044H17.9933C19.3193 22.0044 20.591 22.5313 21.5287 23.4691C22.4663 24.407 22.9931 25.679 22.9931 27.0054C22.9931 28.3317 22.4663 29.6037 21.5287 30.5416C20.591 31.4795 19.3193 32.0064 17.9933 32.0064V34.0067H13.9935V32.0064H9.99364V28.0056H17.9933C18.2432 28.006 18.4842 27.9129 18.6688 27.7445C18.8535 27.5761 18.9684 27.3447 18.991 27.0957C19.0136 26.8468 18.9422 26.5985 18.7908 26.3996C18.6395 26.2007 18.4192 26.0657 18.1733 26.0212L17.9933 26.0052H13.9935C12.6674 26.0052 11.3957 25.4783 10.4581 24.5404C9.52044 23.6025 8.99368 22.3305 8.99368 21.0042C8.99368 19.6778 9.52044 18.4058 10.4581 17.4679C11.3957 16.5301 12.6674 16.0032 13.9935 16.0032V14.0028H17.9933ZM23.993 4.00079C22.2981 3.99853 20.6221 4.35633 19.0758 5.05051C17.5295 5.7447 16.1483 6.75944 15.0234 8.02759C17.2839 7.89034 19.5477 8.23462 21.6651 9.03769C23.7826 9.84075 25.7056 11.0843 27.3068 12.6861C28.908 14.2879 30.151 16.2114 30.9536 18.3295C31.7562 20.4476 32.1002 22.712 31.9627 24.973C33.781 23.3559 35.065 21.2241 35.6442 18.8604C36.2234 16.4966 36.0705 14.0126 35.2058 11.7378C34.3411 9.46293 32.8055 7.50477 30.8026 6.12298C28.7997 4.74119 26.4242 4.00108 23.991 4.00079" fill="black"/>
</svg>
